<mxfile host="app.diagrams.net" modified="2022-12-29T07:04:20.804Z" agent="5.0 (Windows NT 10.0; WOW64) AppleWebKit/537.36 (KHTML, like Gecko) Chrome/86.0.4240.198 Safari/537.36" version="20.6.0" etag="Tp_nhkXxH4QXfuzFFAUd" type="github">
  <diagram id="8hbHO6MbsPIHn1_D2nrX" name="第 1 页">
    <mxGraphModel dx="1032" dy="1706" grid="1" gridSize="10" guides="1" tooltips="1" connect="1" arrows="1" fold="1" page="1" pageScale="1" pageWidth="827" pageHeight="1169" math="0" shadow="0">
      <root>
        <mxCell id="0" />
        <mxCell id="1" parent="0" />
        <mxCell id="4voTEsapTZj8RqKonu6c-1" value="" style="endArrow=classic;html=1;rounded=0;exitDx=0;exitDy=0;exitPerimeter=0;startArrow=none;" edge="1" parent="1" source="4voTEsapTZj8RqKonu6c-8">
          <mxGeometry width="50" height="50" relative="1" as="geometry">
            <mxPoint x="34.809999999999945" y="188.21000000000004" as="sourcePoint" />
            <mxPoint x="770" y="190" as="targetPoint" />
          </mxGeometry>
        </mxCell>
        <mxCell id="4voTEsapTZj8RqKonu6c-2" value="" style="endArrow=classic;html=1;rounded=0;" edge="1" parent="1">
          <mxGeometry width="50" height="50" relative="1" as="geometry">
            <mxPoint x="60" y="211" as="sourcePoint" />
            <mxPoint x="59" y="3" as="targetPoint" />
          </mxGeometry>
        </mxCell>
        <mxCell id="4voTEsapTZj8RqKonu6c-3" value="0" style="text;html=1;align=center;verticalAlign=middle;resizable=0;points=[];autosize=1;strokeColor=none;fillColor=none;" vertex="1" parent="1">
          <mxGeometry x="31" y="185" width="30" height="30" as="geometry" />
        </mxCell>
        <mxCell id="4voTEsapTZj8RqKonu6c-4" value="最后阅读时间距今天数" style="text;html=1;align=center;verticalAlign=middle;resizable=0;points=[];autosize=1;strokeColor=none;fillColor=none;" vertex="1" parent="1">
          <mxGeometry x="624" y="209" width="140" height="30" as="geometry" />
        </mxCell>
        <mxCell id="4voTEsapTZj8RqKonu6c-5" value="分数" style="text;html=1;align=center;verticalAlign=middle;resizable=0;points=[];autosize=1;strokeColor=none;fillColor=none;" vertex="1" parent="1">
          <mxGeometry x="8" y="3" width="50" height="30" as="geometry" />
        </mxCell>
        <mxCell id="4voTEsapTZj8RqKonu6c-6" value="" style="endArrow=none;html=1;rounded=0;" edge="1" parent="1">
          <mxGeometry width="50" height="50" relative="1" as="geometry">
            <mxPoint x="60" y="45" as="sourcePoint" />
            <mxPoint x="70" y="57" as="targetPoint" />
          </mxGeometry>
        </mxCell>
        <mxCell id="4voTEsapTZj8RqKonu6c-7" value="1" style="text;html=1;align=center;verticalAlign=middle;resizable=0;points=[];autosize=1;strokeColor=none;fillColor=none;" vertex="1" parent="1">
          <mxGeometry x="30" y="32" width="30" height="30" as="geometry" />
        </mxCell>
        <mxCell id="4voTEsapTZj8RqKonu6c-8" value="1" style="shape=waypoint;sketch=0;fillStyle=solid;size=6;pointerEvents=1;points=[];fillColor=none;resizable=0;rotatable=0;perimeter=centerPerimeter;snapToPoint=1;verticalAlign=bottom;" vertex="1" parent="1">
          <mxGeometry x="60" y="170" width="40" height="40" as="geometry" />
        </mxCell>
        <mxCell id="4voTEsapTZj8RqKonu6c-9" value="" style="endArrow=none;html=1;rounded=0;" edge="1" parent="1" target="4voTEsapTZj8RqKonu6c-8">
          <mxGeometry width="50" height="50" relative="1" as="geometry">
            <mxPoint x="30" y="190" as="sourcePoint" />
            <mxPoint x="760" y="189" as="targetPoint" />
          </mxGeometry>
        </mxCell>
        <mxCell id="4voTEsapTZj8RqKonu6c-10" value="2" style="shape=waypoint;sketch=0;fillStyle=solid;size=6;pointerEvents=1;points=[];fillColor=none;resizable=0;rotatable=0;perimeter=centerPerimeter;snapToPoint=1;verticalAlign=bottom;" vertex="1" parent="1">
          <mxGeometry x="85" y="170" width="40" height="40" as="geometry" />
        </mxCell>
        <mxCell id="4voTEsapTZj8RqKonu6c-11" value="3" style="shape=waypoint;sketch=0;fillStyle=solid;size=6;pointerEvents=1;points=[];fillColor=none;resizable=0;rotatable=0;perimeter=centerPerimeter;snapToPoint=1;verticalAlign=bottom;" vertex="1" parent="1">
          <mxGeometry x="112" y="170" width="40" height="40" as="geometry" />
        </mxCell>
        <mxCell id="4voTEsapTZj8RqKonu6c-12" value="" style="endArrow=none;html=1;rounded=0;" edge="1" parent="1">
          <mxGeometry width="50" height="50" relative="1" as="geometry">
            <mxPoint x="70" y="57" as="sourcePoint" />
            <mxPoint x="100" y="77" as="targetPoint" />
          </mxGeometry>
        </mxCell>
        <mxCell id="4voTEsapTZj8RqKonu6c-13" value="5" style="shape=waypoint;sketch=0;fillStyle=solid;size=6;pointerEvents=1;points=[];fillColor=none;resizable=0;rotatable=0;perimeter=centerPerimeter;snapToPoint=1;verticalAlign=bottom;" vertex="1" parent="1">
          <mxGeometry x="152" y="170" width="40" height="40" as="geometry" />
        </mxCell>
        <mxCell id="4voTEsapTZj8RqKonu6c-14" value="8" style="shape=waypoint;sketch=0;fillStyle=solid;size=6;pointerEvents=1;points=[];fillColor=none;resizable=0;rotatable=0;perimeter=centerPerimeter;snapToPoint=1;verticalAlign=bottom;" vertex="1" parent="1">
          <mxGeometry x="211" y="170" width="40" height="40" as="geometry" />
        </mxCell>
        <mxCell id="4voTEsapTZj8RqKonu6c-15" value="13" style="shape=waypoint;sketch=0;fillStyle=solid;size=6;pointerEvents=1;points=[];fillColor=none;resizable=0;rotatable=0;perimeter=centerPerimeter;snapToPoint=1;verticalAlign=bottom;" vertex="1" parent="1">
          <mxGeometry x="296" y="170" width="40" height="40" as="geometry" />
        </mxCell>
        <mxCell id="4voTEsapTZj8RqKonu6c-16" value="21" style="shape=waypoint;sketch=0;fillStyle=solid;size=6;pointerEvents=1;points=[];fillColor=none;resizable=0;rotatable=0;perimeter=centerPerimeter;snapToPoint=1;verticalAlign=bottom;" vertex="1" parent="1">
          <mxGeometry x="411" y="170" width="40" height="40" as="geometry" />
        </mxCell>
        <mxCell id="4voTEsapTZj8RqKonu6c-17" value="34" style="shape=waypoint;sketch=0;fillStyle=solid;size=6;pointerEvents=1;points=[];fillColor=none;resizable=0;rotatable=0;perimeter=centerPerimeter;snapToPoint=1;verticalAlign=bottom;" vertex="1" parent="1">
          <mxGeometry x="540" y="170" width="40" height="40" as="geometry" />
        </mxCell>
        <mxCell id="4voTEsapTZj8RqKonu6c-18" value="55" style="shape=waypoint;sketch=0;fillStyle=solid;size=6;pointerEvents=1;points=[];fillColor=none;resizable=0;rotatable=0;perimeter=centerPerimeter;snapToPoint=1;verticalAlign=bottom;" vertex="1" parent="1">
          <mxGeometry x="722" y="170" width="40" height="40" as="geometry" />
        </mxCell>
        <mxCell id="4voTEsapTZj8RqKonu6c-19" value="" style="endArrow=none;html=1;rounded=0;" edge="1" parent="1">
          <mxGeometry width="50" height="50" relative="1" as="geometry">
            <mxPoint x="100" y="78" as="sourcePoint" />
            <mxPoint x="130" y="90" as="targetPoint" />
          </mxGeometry>
        </mxCell>
        <mxCell id="4voTEsapTZj8RqKonu6c-20" value="" style="endArrow=none;html=1;rounded=0;" edge="1" parent="1">
          <mxGeometry width="50" height="50" relative="1" as="geometry">
            <mxPoint x="130" y="90" as="sourcePoint" />
            <mxPoint x="170" y="110" as="targetPoint" />
          </mxGeometry>
        </mxCell>
        <mxCell id="4voTEsapTZj8RqKonu6c-21" value="" style="endArrow=none;html=1;rounded=0;" edge="1" parent="1">
          <mxGeometry width="50" height="50" relative="1" as="geometry">
            <mxPoint x="170" y="110" as="sourcePoint" />
            <mxPoint x="230" y="120" as="targetPoint" />
          </mxGeometry>
        </mxCell>
        <mxCell id="4voTEsapTZj8RqKonu6c-22" value="" style="endArrow=none;html=1;rounded=0;" edge="1" parent="1">
          <mxGeometry width="50" height="50" relative="1" as="geometry">
            <mxPoint x="230" y="120" as="sourcePoint" />
            <mxPoint x="320" y="140" as="targetPoint" />
          </mxGeometry>
        </mxCell>
        <mxCell id="4voTEsapTZj8RqKonu6c-23" value="" style="endArrow=none;html=1;rounded=0;" edge="1" parent="1">
          <mxGeometry width="50" height="50" relative="1" as="geometry">
            <mxPoint x="320" y="140" as="sourcePoint" />
            <mxPoint x="430" y="150" as="targetPoint" />
          </mxGeometry>
        </mxCell>
        <mxCell id="4voTEsapTZj8RqKonu6c-24" value="" style="endArrow=none;html=1;rounded=0;" edge="1" parent="1">
          <mxGeometry width="50" height="50" relative="1" as="geometry">
            <mxPoint x="430" y="150" as="sourcePoint" />
            <mxPoint x="560" y="160" as="targetPoint" />
          </mxGeometry>
        </mxCell>
        <mxCell id="4voTEsapTZj8RqKonu6c-25" value="" style="endArrow=none;html=1;rounded=0;" edge="1" parent="1">
          <mxGeometry width="50" height="50" relative="1" as="geometry">
            <mxPoint x="560" y="160" as="sourcePoint" />
            <mxPoint x="740" y="172" as="targetPoint" />
          </mxGeometry>
        </mxCell>
        <mxCell id="4voTEsapTZj8RqKonu6c-26" value="" style="endArrow=classic;html=1;rounded=0;exitDx=0;exitDy=0;exitPerimeter=0;startArrow=none;" edge="1" parent="1">
          <mxGeometry width="50" height="50" relative="1" as="geometry">
            <mxPoint x="80" y="459" as="sourcePoint" />
            <mxPoint x="760" y="458" as="targetPoint" />
          </mxGeometry>
        </mxCell>
        <mxCell id="4voTEsapTZj8RqKonu6c-27" value="" style="endArrow=classic;html=1;rounded=0;" edge="1" parent="1">
          <mxGeometry width="50" height="50" relative="1" as="geometry">
            <mxPoint x="60" y="480" as="sourcePoint" />
            <mxPoint x="59" y="272" as="targetPoint" />
          </mxGeometry>
        </mxCell>
        <mxCell id="4voTEsapTZj8RqKonu6c-28" value="0" style="text;html=1;align=center;verticalAlign=middle;resizable=0;points=[];autosize=1;strokeColor=none;fillColor=none;" vertex="1" parent="1">
          <mxGeometry x="31" y="454" width="30" height="30" as="geometry" />
        </mxCell>
        <mxCell id="4voTEsapTZj8RqKonu6c-29" value="发布时间过去多久(h)" style="text;html=1;align=center;verticalAlign=middle;resizable=0;points=[];autosize=1;strokeColor=none;fillColor=none;" vertex="1" parent="1">
          <mxGeometry x="640" y="679" width="130" height="30" as="geometry" />
        </mxCell>
        <mxCell id="4voTEsapTZj8RqKonu6c-30" value="分数" style="text;html=1;align=center;verticalAlign=middle;resizable=0;points=[];autosize=1;strokeColor=none;fillColor=none;" vertex="1" parent="1">
          <mxGeometry x="8" y="276" width="50" height="30" as="geometry" />
        </mxCell>
        <mxCell id="4voTEsapTZj8RqKonu6c-31" value="1" style="text;html=1;align=center;verticalAlign=middle;resizable=0;points=[];autosize=1;strokeColor=none;fillColor=none;" vertex="1" parent="1">
          <mxGeometry x="30" y="301" width="30" height="30" as="geometry" />
        </mxCell>
        <mxCell id="4voTEsapTZj8RqKonu6c-32" value="" style="endArrow=none;html=1;rounded=0;" edge="1" parent="1">
          <mxGeometry width="50" height="50" relative="1" as="geometry">
            <mxPoint x="30" y="459" as="sourcePoint" />
            <mxPoint x="80" y="459" as="targetPoint" />
          </mxGeometry>
        </mxCell>
        <mxCell id="4voTEsapTZj8RqKonu6c-33" value="1000" style="shape=waypoint;sketch=0;fillStyle=solid;size=6;pointerEvents=1;points=[];fillColor=none;resizable=0;rotatable=0;perimeter=centerPerimeter;snapToPoint=1;verticalAlign=bottom;" vertex="1" parent="1">
          <mxGeometry x="166" y="439" width="40" height="40" as="geometry" />
        </mxCell>
        <mxCell id="4voTEsapTZj8RqKonu6c-34" value="1000000" style="shape=waypoint;sketch=0;fillStyle=solid;size=6;pointerEvents=1;points=[];fillColor=none;resizable=0;rotatable=0;perimeter=centerPerimeter;snapToPoint=1;verticalAlign=bottom;" vertex="1" parent="1">
          <mxGeometry x="722" y="439" width="40" height="40" as="geometry" />
        </mxCell>
        <mxCell id="4voTEsapTZj8RqKonu6c-35" value="阅读量" style="text;html=1;align=center;verticalAlign=middle;resizable=0;points=[];autosize=1;strokeColor=none;fillColor=none;" vertex="1" parent="1">
          <mxGeometry x="698" y="479" width="60" height="30" as="geometry" />
        </mxCell>
        <mxCell id="4voTEsapTZj8RqKonu6c-36" value="" style="endArrow=none;dashed=1;html=1;rounded=0;exitX=0.987;exitY=0.52;exitDx=0;exitDy=0;exitPerimeter=0;" edge="1" parent="1" source="4voTEsapTZj8RqKonu6c-31">
          <mxGeometry width="50" height="50" relative="1" as="geometry">
            <mxPoint x="80" y="350" as="sourcePoint" />
            <mxPoint x="740" y="317" as="targetPoint" />
          </mxGeometry>
        </mxCell>
        <mxCell id="4voTEsapTZj8RqKonu6c-37" value="" style="endArrow=none;html=1;rounded=0;" edge="1" parent="1">
          <mxGeometry width="50" height="50" relative="1" as="geometry">
            <mxPoint x="740" y="172" as="sourcePoint" />
            <mxPoint x="770" y="172" as="targetPoint" />
          </mxGeometry>
        </mxCell>
        <mxCell id="4voTEsapTZj8RqKonu6c-38" value="" style="curved=1;endArrow=none;html=1;rounded=0;endFill=0;" edge="1" parent="1">
          <mxGeometry width="50" height="50" relative="1" as="geometry">
            <mxPoint x="59" y="459" as="sourcePoint" />
            <mxPoint x="739" y="319" as="targetPoint" />
            <Array as="points">
              <mxPoint x="150" y="350" />
            </Array>
          </mxGeometry>
        </mxCell>
        <mxCell id="4voTEsapTZj8RqKonu6c-39" value="" style="endArrow=none;dashed=1;html=1;rounded=0;" edge="1" parent="1">
          <mxGeometry width="50" height="50" relative="1" as="geometry">
            <mxPoint x="60" y="390" as="sourcePoint" />
            <mxPoint x="190" y="390" as="targetPoint" />
          </mxGeometry>
        </mxCell>
      </root>
    </mxGraphModel>
  </diagram>
</mxfile>
